<?xml version="1.0" encoding="utf-8"?>

<!DOCTYPE svg PUBLIC "-//W3C//DTD SVG 1.0//EN"    "http://www.w3.org/TR/2001/REC-SVG-20010904/DTD/svg10.dtd">
<svg  
xmlns="http://www.w3.org/2000/svg" 
xmlns:xlink="http://www.w3.org/1999/xlink" 
width="630" 
height="630" 
viewBox="0 0 630 630" 
style="overflow:visible;enable-background:new 0 0 630 630" 
xml:space="preserve"
>

<g id="Ebene_1">

  <rect style="fill:none;" width="630" height="630"/> 

  <circle style="fill:#3c92d8;" cx="315" cy="315" r="300"/> 

  <path style="fill:#FFFFFF;" d="M475.815,151.172c-4.792-23.962-20.129-33.547-43.133-43.133
  	c-22.679-9.449-77.024-20.754-117.128-21.072c-40.104,0.317-94.449,11.623-117.128,21.072
  	c-23.004,9.585-38.34,19.17-43.132,43.133l-17.252,132.841v183.044h29.712v28.706c0,35,51.217,35,51.217,0v-28.706h94.557h0.299
  	h98.308v28.706c0,35,51.217,35,51.217,0v-28.706h29.713V284.013L475.815,151.172z M242.518,120.499h71.311h74.761
  	c14.378,0,14.378,21.567,0,21.567h-74.937h-71.136C228.141,142.066,228.141,120.499,242.518,120.499z M193.384,409.675
  	c-13.568,0-24.568-11.002-24.568-24.57c0-13.567,11-24.57,24.568-24.57s24.568,11.003,24.568,24.57
  	C217.954,398.673,206.952,409.675,193.384,409.675z M313.829,298.013H183.507c-12.759,0-15.431-9.167-14.177-18.402
  	l13.428-96.349c1.844-11.707,5.813-19.423,21-19.423h109.896h113.696c15.188,0,19.155,7.716,20.999,19.423l13.429,96.349
  	c1.252,9.234-1.42,18.402-14.179,18.402H313.829z M437.724,409.675c-13.568,0-24.568-11.002-24.568-24.57
  	c0-13.567,11.001-24.57,24.568-24.57s24.568,11.003,24.568,24.57C462.292,398.673,451.292,409.675,437.724,409.675z"/>
</g>

</svg>
