<?xml version="1.0" encoding="UTF-8" standalone="no"?>
<!-- Generator: Adobe Illustrator 16.0.0, SVG Export Plug-In . SVG Version: 6.00 Build 0)  -->

<svg
   xmlns:dc="http://purl.org/dc/elements/1.1/"
   xmlns:cc="http://creativecommons.org/ns#"
   xmlns:rdf="http://www.w3.org/1999/02/22-rdf-syntax-ns#"
   xmlns:svg="http://www.w3.org/2000/svg"
   xmlns="http://www.w3.org/2000/svg"
   xmlns:sodipodi="http://sodipodi.sourceforge.net/DTD/sodipodi-0.dtd"
   xmlns:inkscape="http://www.inkscape.org/namespaces/inkscape"
   version="1.1"
   id="Capa_1"
   x="0px"
   y="0px"
   width="76.334px"
   height="76.334px"
   viewBox="0 0 76.334 76.334"
   style="enable-background:new 0 0 76.334 76.334;"
   xml:space="preserve"
   sodipodi:docname="bussq.svg"
   inkscape:version="0.92.4 (5da689c313, 2019-01-14)"><metadata
   id="metadata41"><rdf:RDF><cc:Work
       rdf:about=""><dc:format>image/svg+xml</dc:format><dc:type
         rdf:resource="http://purl.org/dc/dcmitype/StillImage" /></cc:Work></rdf:RDF></metadata><defs
   id="defs39" /><sodipodi:namedview
   pagecolor="#ffffff"
   bordercolor="#666666"
   borderopacity="1"
   objecttolerance="10"
   gridtolerance="10"
   guidetolerance="10"
   inkscape:pageopacity="0"
   inkscape:pageshadow="2"
   inkscape:window-width="1920"
   inkscape:window-height="1027"
   id="namedview37"
   showgrid="false"
   inkscape:zoom="2.8284271"
   inkscape:cx="102.14732"
   inkscape:cy="20.292977"
   inkscape:window-x="1272"
   inkscape:window-y="-8"
   inkscape:window-maximized="1"
   inkscape:current-layer="Capa_1" />
<g
   id="g4"
   transform="matrix(1,0,0,0.8648,0,5.1601784)">
	<path
   d="M 2.386,21.467 H 4.772 V 35.779 H 2.386 C 1.067,35.779 0,34.717 0,33.394 V 23.852 C 0,22.54 1.067,21.467 2.386,21.467 Z m 71.562,0 H 71.56 v 14.312 h 2.388 c 1.317,0 2.386,-1.062 2.386,-2.385 v -9.542 c 0,-1.312 -1.066,-2.385 -2.386,-2.385 z m -7.156,-4.769 v 42.937 c 0,2.638 -2.133,4.771 -4.771,4.771 v 4.771 c 0,2.639 -2.133,4.771 -4.771,4.771 h -4.772 c -2.637,0 -4.771,-2.137 -4.771,-4.771 V 64.406 H 28.626 v 4.771 c 0,2.639 -2.134,4.771 -4.771,4.771 h -4.769 c -2.638,0 -4.771,-2.137 -4.771,-4.771 v -4.771 c -2.637,0 -4.771,-2.137 -4.771,-4.771 V 16.698 C 9.542,8.796 15.954,2.386 23.855,2.386 H 52.48 c 7.902,0 14.312,6.408 14.312,14.312 z M 28.626,11.928 H 47.709 V 7.157 H 28.626 Z m -4.771,42.938 c 0,-2.641 -2.134,-4.771 -4.769,-4.771 -2.637,0 -4.771,2.133 -4.771,4.771 0,2.635 2.134,4.771 4.771,4.771 2.634,-10e-4 4.769,-2.138 4.769,-4.771 z m 38.166,0 c 0,-2.641 -2.133,-4.771 -4.771,-4.771 -2.638,0 -4.771,2.133 -4.771,4.771 0,2.635 2.136,4.771 4.771,4.771 2.639,-10e-4 4.771,-2.138 4.771,-4.771 z m 0,-38.168 H 14.313 v 28.625 h 47.708 z"
   id="path2"
   inkscape:connector-curvature="0"
   style="fill:#0071bc" />
</g>
<g
   id="g6">
</g>
<g
   id="g8">
</g>
<g
   id="g10">
</g>
<g
   id="g12">
</g>
<g
   id="g14">
</g>
<g
   id="g16">
</g>
<g
   id="g18">
</g>
<g
   id="g20">
</g>
<g
   id="g22">
</g>
<g
   id="g24">
</g>
<g
   id="g26">
</g>
<g
   id="g28">
</g>
<g
   id="g30">
</g>
<g
   id="g32">
</g>
<g
   id="g34">
</g>

<path
   style="fill:#0071bc;fill-opacity:1;stroke-width:0.08838835"
   d="M 14.385893,32.008797 V 19.678623 H 38.162358 61.938824 V 32.008797 44.338972 H 38.162358 14.385893 Z"
   id="path2457"
   inkscape:connector-curvature="0" /><rect
   style="fill:#0071bc;fill-opacity:1"
   id="rect6971"
   width="50.558132"
   height="27.930719"
   x="12.727922"
   y="18.086079" /><rect
   style="fill:#0071bc;fill-opacity:1"
   id="rect6975"
   width="25.375"
   height="5.5"
   x="27"
   y="10.459" /><rect
   style="fill:#0071bc;fill-opacity:1"
   id="rect6977"
   width="22.75"
   height="10"
   x="9.5"
   y="47.584" /><rect
   style="fill:#0071bc;fill-opacity:1"
   id="rect6979"
   width="20.25"
   height="9"
   x="45.036057"
   y="48.0168" /></svg>