<?xml version="1.0" encoding="utf-8"?>
<svg viewBox="0 0 500 500" xmlns="http://www.w3.org/2000/svg">
  <g id="g4" transform="matrix(6.464332, 0, 0, 6.173522, 2.786632, 14.08956)" style="">
    <path d="M 2.386,21.467 H 4.772 V 35.779 H 2.386 C 1.067,35.779 0,34.717 0,33.394 V 23.852 C 0,22.54 1.067,21.467 2.386,21.467 Z m 71.562,0 H 71.56 v 14.312 h 2.388 c 1.317,0 2.386,-1.062 2.386,-2.385 v -9.542 c 0,-1.312 -1.066,-2.385 -2.386,-2.385 z m -7.156,-4.769 v 42.937 c 0,2.638 -2.133,4.771 -4.771,4.771 v 4.771 c 0,2.639 -2.133,4.771 -4.771,4.771 h -4.772 c -2.637,0 -4.771,-2.137 -4.771,-4.771 V 64.406 H 28.626 v 4.771 c 0,2.639 -2.134,4.771 -4.771,4.771 h -4.769 c -2.638,0 -4.771,-2.137 -4.771,-4.771 v -4.771 c -2.637,0 -4.771,-2.137 -4.771,-4.771 V 16.698 C 9.542,8.796 15.954,2.386 23.855,2.386 H 52.48 c 7.902,0 14.312,6.408 14.312,14.312 z M 28.626,11.928 H 47.709 V 7.157 H 28.626 Z m -4.771,42.938 c 0,-2.641 -2.134,-4.771 -4.769,-4.771 -2.637,0 -4.771,2.133 -4.771,4.771 0,2.635 2.134,4.771 4.771,4.771 2.634,-10e-4 4.769,-2.138 4.769,-4.771 z m 38.166,0 c 0,-2.641 -2.133,-4.771 -4.771,-4.771 -2.638,0 -4.771,2.133 -4.771,4.771 0,2.635 2.136,4.771 4.771,4.771 2.639,-10e-4 4.771,-2.138 4.771,-4.771 z m 0,-38.168 H 14.313 v 28.625 h 47.708 z" id="path2" style="fill: rgb(255, 30, 26);"/>
  </g>
  <g id="g6" transform="matrix(1, 0, 0, 1, 161.151566, 151.40332)"/>
  <g id="g8" transform="matrix(1, 0, 0, 1, 161.151566, 151.40332)"/>
  <g id="g10" transform="matrix(1, 0, 0, 1, 161.151566, 151.40332)"/>
  <g id="g12" transform="matrix(1, 0, 0, 1, 161.151566, 151.40332)"/>
  <g id="g14" transform="matrix(1, 0, 0, 1, 161.151566, 151.40332)"/>
  <g id="g16" transform="matrix(1, 0, 0, 1, 161.151566, 151.40332)"/>
  <g id="g18" transform="matrix(1, 0, 0, 1, 161.151566, 151.40332)"/>
  <g id="g20" transform="matrix(1, 0, 0, 1, 161.151566, 151.40332)"/>
  <g id="g22" transform="matrix(1, 0, 0, 1, 161.151566, 151.40332)"/>
  <g id="g24" transform="matrix(1, 0, 0, 1, 161.151566, 151.40332)"/>
  <g id="g26" transform="matrix(1, 0, 0, 1, 161.151566, 151.40332)"/>
  <g id="g28" transform="matrix(1, 0, 0, 1, 161.151566, 151.40332)"/>
  <g id="g30" transform="matrix(1, 0, 0, 1, 161.151566, 151.40332)"/>
  <g id="g32" transform="matrix(1, 0, 0, 1, 161.151566, 151.40332)"/>
  <g id="g34" transform="matrix(1, 0, 0, 1, 161.151566, 151.40332)"/>
</svg>